<svg width="10" height="11" viewBox="0 0 10 11" fill="none" xmlns="http://www.w3.org/2000/svg">
    <path d="M3.07495 5.43853C2.72714 4.93515 2.52024 4.32779 2.47754 4.2762C2.98695 3.92105 3.98324 3.47477 4.03902 2.83441C4.11 2.00705 2.70828 0.277433 2.43957 0.261719C1.70414 0.269576 0.358212 1.51415 0.198712 1.89024C-0.0977646 2.66784 0.049164 3.39148 0.558831 4.4391C1.20783 5.99743 3.6184 8.95355 4.99733 9.88148C5.90981 10.5818 6.57635 10.8568 7.37228 10.6908C7.74235 10.6206 9.07885 9.52398 9.21269 8.78253C9.24543 8.50753 7.69181 6.68441 6.88828 6.61212C6.26443 6.5545 5.66624 7.48846 5.2375 7.94496C5.19481 7.89048 4.82919 7.60527 4.43685 7.15374C3.92614 6.6171 3.45157 5.9867 3.07495 5.43853Z" fill="white"/>
</svg>