<svg width="6" height="10" viewBox="0 0 6 10" fill="none" xmlns="http://www.w3.org/2000/svg">
    <path d="M4.71434 7.56754H1.28566C1.04937 7.56754 0.857143 7.38557 0.857143 7.16189C0.857143 6.93849 1.0494 6.75676 1.28566 6.75676H2.99997C3.01283 6.75676 3.02569 6.75603 3.03854 6.75492C3.04254 6.75459 3.04649 6.75416 3.05046 6.75373C3.05974 6.75268 3.06897 6.75135 3.07823 6.74973C3.08191 6.74908 3.08569 6.74857 3.08934 6.74784C3.10086 6.74551 3.11229 6.74273 3.1236 6.73951C3.12806 6.73824 3.13243 6.73673 3.1368 6.73532C3.14426 6.73295 3.15166 6.73043 3.15894 6.72765C3.16369 6.72587 3.16843 6.72403 3.17306 6.72208C3.18071 6.71889 3.1882 6.71541 3.19569 6.71176C3.19923 6.71003 3.20286 6.70849 3.20631 6.70665C3.21586 6.70168 3.22529 6.69641 3.23449 6.6907C3.23514 6.69027 3.23686 6.68924 3.23906 6.68784C3.23934 6.68765 3.23963 6.68749 3.23991 6.6873C3.28546 6.65868 3.59574 6.45987 3.98323 6.11846C4.8108 5.38919 5.79729 4.19484 5.79729 2.64643C5.79729 1.18719 4.5424 0 2.99997 0C1.45757 0 0.202714 1.18719 0.202714 2.64643C0.202714 4.11014 1.09329 5.25341 1.82517 5.94595H1.28566C0.576771 5.94595 0 6.49143 0 7.16189C0 7.83265 0.576771 8.37835 1.28566 8.37835H4.71434C4.95063 8.37835 5.14286 8.56032 5.14286 8.78403C5.14286 9.00743 4.9506 9.18919 4.71434 9.18919H0.428571C0.191886 9.18919 0 9.3707 0 9.59459C0 9.81849 0.191886 10 0.428571 10H4.71434C5.42326 10 6 9.45451 6 8.78403C6 8.11324 5.42326 7.56754 4.71434 7.56754ZM3 1.75419C3.52069 1.75419 3.94283 2.15351 3.94283 2.64608C3.94283 3.13868 3.52069 3.53797 3 3.53797C2.47929 3.53797 2.05714 3.13868 2.05714 2.64608C2.05714 2.15351 2.47929 1.75419 3 1.75419Z" fill="white"/>
</svg>