<svg width="18" height="24" viewBox="0 0 18 24" fill="none" xmlns="http://www.w3.org/2000/svg">
    <path d="M15.7477 8.37206H15.3219V5.61464C15.3221 2.51873 12.4861 0 9.00013 0C5.51431 0 2.67833 2.51873 2.67833 5.61464V8.37206H2.25232C1.01045 8.37206 0 9.26956 0 10.3726V21.2165C0 22.3196 1.01045 23.2171 2.25232 23.2171H15.7477C16.9895 23.2171 18 22.3196 18 21.2165V10.3726C18 9.26956 16.9897 8.37206 15.7477 8.37206ZM4.60888 5.61464C4.60888 3.46424 6.57882 1.71474 9.00013 1.71474C11.4214 1.71474 13.3914 3.46424 13.3914 5.61464V8.37206H4.60888V5.61464ZM16.0694 21.2166C16.0694 21.3715 15.9221 21.5024 15.7477 21.5024H2.25232C2.07792 21.5024 1.93056 21.3715 1.93056 21.2166V10.3726C1.93056 10.2177 2.07792 10.0868 2.25232 10.0868H3.6436H14.3567H15.7477C15.9221 10.0868 16.0694 10.2177 16.0694 10.3726V21.2166Z" fill="#212121"/>
    <path d="M9.00043 13.2959C8.46734 13.2959 8.03516 13.6797 8.03516 14.1533V17.4359C8.03516 17.9095 8.46734 18.2932 9.00043 18.2932C9.53353 18.2932 9.96571 17.9095 9.96571 17.4359V14.1533C9.96571 13.6797 9.53353 13.2959 9.00043 13.2959Z" fill="#212121"/>
</svg>