<svg width="46" height="46" viewBox="0 0 46 46" fill="none" xmlns="http://www.w3.org/2000/svg">
    <g filter="url(#filter0_d_169_1452)">
        <circle cx="23" cy="23" r="18" fill="white"/>
    </g>
    <path d="M19.8833 29.3599V28.8799H16.169C15.5782 28.8791 15.0118 28.6513 14.5941 28.2464C14.1763 27.8415 13.9412 27.2925 13.9405 26.7199V26.3531C13.9385 25.8964 14.0688 25.4484 14.3166 25.0599C14.5644 24.6714 14.9196 24.3581 15.342 24.1557C15.5309 24.0642 15.6925 23.9273 15.8113 23.758C15.93 23.5888 16.0021 23.3928 16.0204 23.1889L16.4622 18.4752C16.5456 17.5858 16.8335 16.7258 17.3048 15.9584C17.7761 15.1909 18.4188 14.5356 19.1857 14.0406C19.9526 13.5455 20.8242 13.2233 21.7365 13.0976C22.6487 12.9719 23.5784 13.0459 24.4573 13.3142C24.1857 13.7235 23.974 14.1675 23.8283 14.6332C23.4299 14.5309 23.0193 14.4792 22.6071 14.4796C21.4373 14.4743 20.3083 14.8961 19.4447 15.661C18.5812 16.426 18.0465 17.478 17.9469 18.6077L17.5062 23.3195C17.4652 23.768 17.306 24.1989 17.044 24.5707C16.7819 24.9425 16.4257 25.2429 16.0095 25.443C15.8341 25.5268 15.6864 25.6565 15.5833 25.8176C15.4801 25.9787 15.4257 26.1645 15.4262 26.3541V26.7208C15.4267 26.9115 15.5051 27.0943 15.6444 27.2291C15.7836 27.3638 15.9722 27.4396 16.169 27.4399H29.0452C29.2421 27.4396 29.4309 27.3637 29.5702 27.2287C29.7094 27.0937 29.7878 26.9107 29.788 26.7199V26.3531C29.7888 26.164 29.7348 25.9784 29.6322 25.8176C29.5296 25.6567 29.3825 25.5269 29.2076 25.443C28.7909 25.2433 28.4341 24.9431 28.1715 24.5712C27.9089 24.1994 27.7493 23.7683 27.708 23.3195L27.5099 21.2266C28.0009 21.3661 28.5098 21.4376 29.0214 21.4388L29.1858 23.188C29.2058 23.3913 29.2786 23.5864 29.3974 23.7551C29.5162 23.9238 29.6772 24.0606 29.8653 24.1528C30.288 24.3554 30.6436 24.6687 30.8919 25.0573C31.1401 25.4459 31.271 25.8942 31.2698 26.3512V26.7179C31.2692 27.2907 31.0343 27.8398 30.6165 28.2448C30.1986 28.6497 29.6321 28.8775 29.0412 28.878H25.3309V29.3599C25.3309 30.0601 25.0439 30.7316 24.5331 31.2267C24.0223 31.7218 23.3295 32 22.6071 32C21.8847 32 21.1919 31.7218 20.6811 31.2267C20.1703 30.7316 19.8833 30.0601 19.8833 29.3599ZM21.369 29.3599C21.369 29.6782 21.4994 29.9834 21.7316 30.2085C21.9638 30.4335 22.2787 30.5599 22.6071 30.5599C22.9355 30.5599 23.2504 30.4335 23.4826 30.2085C23.7147 29.9834 23.8452 29.6782 23.8452 29.3599V28.8799H21.369V29.3599ZM28.8441 19.514C28.3044 19.4838 27.7796 19.3312 27.3118 19.0685L27.2683 18.6077C27.1625 17.4195 26.5756 16.3201 25.636 15.5501C25.7305 15.0587 25.9369 14.594 26.2401 14.1897C26.9486 14.69 27.5388 15.3311 27.9713 16.0701C28.4037 16.8092 28.6686 17.6291 28.748 18.4752L28.8471 19.513L28.8441 19.514Z" fill="#FF0018"/>
    <path d="M29.0458 19.5199C28.3601 19.5199 27.6899 19.3229 27.1198 18.9537C26.5497 18.5844 26.1054 18.0597 25.843 17.4457C25.5806 16.8317 25.512 16.1561 25.6457 15.5044C25.7795 14.8526 26.1096 14.2539 26.5945 13.7839C27.0793 13.314 27.697 12.994 28.3694 12.8644C29.0419 12.7347 29.7389 12.8013 30.3724 13.0556C31.0058 13.3099 31.5473 13.7406 31.9282 14.2931C32.3091 14.8457 32.5124 15.4953 32.5124 16.1599C32.5124 17.051 32.1472 17.9057 31.4971 18.5358C30.8469 19.1659 29.9652 19.5199 29.0458 19.5199Z" fill="#FF0018"/>
    <defs>
        <filter id="filter0_d_169_1452" x="0" y="0" width="46" height="46" filterUnits="userSpaceOnUse" color-interpolation-filters="sRGB">
            <feFlood flood-opacity="0" result="BackgroundImageFix"/>
            <feColorMatrix in="SourceAlpha" type="matrix" values="0 0 0 0 0 0 0 0 0 0 0 0 0 0 0 0 0 0 127 0" result="hardAlpha"/>
            <feOffset/>
            <feGaussianBlur stdDeviation="2.5"/>
            <feComposite in2="hardAlpha" operator="out"/>
            <feColorMatrix type="matrix" values="0 0 0 0 1 0 0 0 0 0 0 0 0 0 0.0627451 0 0 0 0.25 0"/>
            <feBlend mode="normal" in2="BackgroundImageFix" result="effect1_dropShadow_169_1452"/>
            <feBlend mode="normal" in="SourceGraphic" in2="effect1_dropShadow_169_1452" result="shape"/>
        </filter>
    </defs>
</svg>
