<svg width="46" height="46" viewBox="0 0 46 46" fill="none" xmlns="http://www.w3.org/2000/svg">
    <g filter="url(#filter0_d_169_1537)">
        <circle cx="23" cy="23" r="18" fill="white"/>
    </g>
    <path d="M19.8823 29.3599V28.8799H16.168C15.5772 28.8791 15.0108 28.6513 14.5931 28.2464C14.1753 27.8415 13.9403 27.2925 13.9395 26.7199V26.3531C13.9375 25.8964 14.0679 25.4484 14.3156 25.0599C14.5634 24.6714 14.9186 24.3581 15.341 24.1557C15.5299 24.0642 15.6915 23.9273 15.8103 23.758C15.9291 23.5888 16.0011 23.3928 16.0195 23.1889L16.4612 18.4752C16.5446 17.5858 16.8325 16.7258 17.3038 15.9584C17.7751 15.1909 18.4178 14.5356 19.1847 14.0406C19.9516 13.5455 20.8232 13.2233 21.7355 13.0976C22.6477 12.9719 23.5775 13.0459 24.4563 13.3142C24.1847 13.7235 23.973 14.1675 23.8274 14.6332C23.4289 14.5309 23.0184 14.4792 22.6061 14.4796C21.4363 14.4743 20.3073 14.8961 19.4438 15.661C18.5802 16.426 18.0455 17.478 17.9459 18.6077L17.5052 23.3195C17.4642 23.768 17.3051 24.1989 17.043 24.5707C16.7809 24.9425 16.4248 25.2429 16.0086 25.443C15.8331 25.5268 15.6854 25.6565 15.5823 25.8176C15.4792 25.9787 15.4247 26.1645 15.4252 26.3541V26.7208C15.4257 26.9115 15.5042 27.0943 15.6434 27.2291C15.7826 27.3638 15.9713 27.4396 16.168 27.4399H29.0442C29.2411 27.4396 29.4299 27.3637 29.5692 27.2287C29.7084 27.0937 29.7868 26.9107 29.787 26.7199V26.3531C29.7878 26.164 29.7338 25.9784 29.6312 25.8176C29.5286 25.6567 29.3815 25.5269 29.2066 25.443C28.7899 25.2433 28.4331 24.9431 28.1705 24.5712C27.9079 24.1994 27.7483 23.7683 27.7071 23.3195L27.509 21.2266C27.9999 21.3661 28.5088 21.4376 29.0204 21.4388L29.1848 23.188C29.2048 23.3913 29.2776 23.5864 29.3964 23.7551C29.5153 23.9238 29.6762 24.0606 29.8643 24.1528C30.287 24.3554 30.6426 24.6687 30.8909 25.0573C31.1392 25.4459 31.2701 25.8942 31.2688 26.3512V26.7179C31.2683 27.2907 31.0333 27.8398 30.6155 28.2448C30.1977 28.6497 29.6311 28.8775 29.0402 28.878H25.3299V29.3599C25.3299 30.0601 25.0429 30.7316 24.5321 31.2267C24.0213 31.7218 23.3285 32 22.6061 32C21.8837 32 21.1909 31.7218 20.6801 31.2267C20.1693 30.7316 19.8823 30.0601 19.8823 29.3599ZM21.368 29.3599C21.368 29.6782 21.4985 29.9834 21.7307 30.2085C21.9628 30.4335 22.2778 30.5599 22.6061 30.5599C22.9345 30.5599 23.2494 30.4335 23.4816 30.2085C23.7138 29.9834 23.8442 29.6782 23.8442 29.3599V28.8799H21.368V29.3599ZM28.8431 19.514C28.3034 19.4838 27.7786 19.3312 27.3109 19.0685L27.2673 18.6077C27.1615 17.4195 26.5746 16.3201 25.635 15.5501C25.7295 15.0587 25.9359 14.594 26.2392 14.1897C26.9476 14.69 27.5378 15.3311 27.9703 16.0701C28.4028 16.8092 28.6676 17.6291 28.747 18.4752L28.8461 19.513L28.8431 19.514Z" fill="#FF0018"/>
    <path d="M29.0448 19.5199C28.3591 19.5199 27.6889 19.3229 27.1188 18.9537C26.5487 18.5844 26.1044 18.0597 25.842 17.4457C25.5796 16.8317 25.511 16.1561 25.6447 15.5044C25.7785 14.8526 26.1087 14.2539 26.5935 13.7839C27.0783 13.314 27.696 12.994 28.3685 12.8644C29.0409 12.7347 29.738 12.8013 30.3714 13.0556C31.0049 13.3099 31.5463 13.7406 31.9272 14.2931C32.3081 14.8457 32.5114 15.4953 32.5114 16.1599C32.5114 17.051 32.1462 17.9057 31.4961 18.5358C30.846 19.1659 29.9642 19.5199 29.0448 19.5199Z" fill="#FF0018"/>
    <defs>
        <filter id="filter0_d_169_1537" x="0" y="0" width="46" height="46" filterUnits="userSpaceOnUse" color-interpolation-filters="sRGB">
            <feFlood flood-opacity="0" result="BackgroundImageFix"/>
            <feColorMatrix in="SourceAlpha" type="matrix" values="0 0 0 0 0 0 0 0 0 0 0 0 0 0 0 0 0 0 127 0" result="hardAlpha"/>
            <feOffset/>
            <feGaussianBlur stdDeviation="2.5"/>
            <feComposite in2="hardAlpha" operator="out"/>
            <feColorMatrix type="matrix" values="0 0 0 0 1 0 0 0 0 0 0 0 0 0 0.0627451 0 0 0 0.25 0"/>
            <feBlend mode="normal" in2="BackgroundImageFix" result="effect1_dropShadow_169_1537"/>
            <feBlend mode="normal" in="SourceGraphic" in2="effect1_dropShadow_169_1537" result="shape"/>
        </filter>
    </defs>
</svg>
