<svg width="20" height="20" viewBox="0 0 20 20" fill="none" xmlns="http://www.w3.org/2000/svg">
    <path fill-rule="evenodd" clip-rule="evenodd" d="M14 7C14 9.2091 12.2091 11 10 11C7.79086 11 6 9.2091 6 7C6 4.79086 7.79086 3 10 3C12.2091 3 14 4.79086 14 7ZM12 7C12 8.1046 11.1046 9 10 9C8.8954 9 8 8.1046 8 7C8 5.89543 8.8954 5 10 5C11.1046 5 12 5.89543 12 7Z" fill="#212121"/>
    <path fill-rule="evenodd" clip-rule="evenodd" d="M10 0C4.47715 0 0 4.47715 0 10C0 15.5228 4.47715 20 10 20C15.5228 20 20 15.5228 20 10C20 4.47715 15.5228 0 10 0ZM1.81818 10C1.81818 11.9002 2.46595 13.6491 3.55271 15.0379C5.04768 13.0808 7.4057 11.8182 10.0586 11.8182C12.6771 11.8182 15.0084 13.0483 16.5059 14.9621C17.5573 13.5857 18.1818 11.8658 18.1818 10C18.1818 5.48131 14.5187 1.81818 10 1.81818C5.48131 1.81818 1.81818 5.48131 1.81818 10ZM10 18.1818C8.04525 18.1818 6.25059 17.4963 4.84334 16.3525C5.99411 14.7102 7.90096 13.6364 10.0586 13.6364C12.1895 13.6364 14.0757 14.6837 15.2307 16.2917C13.8126 17.4719 11.9892 18.1818 10 18.1818Z" fill="#212121"/>
</svg>
